<?xml version="1.0" encoding="utf-8"?>
<!-- Generator: Adobe Illustrator 26.0.1, SVG Export Plug-In . SVG Version: 6.00 Build 0)  -->
<svg version="1.1" id="Layer_1" xmlns="http://www.w3.org/2000/svg" xmlns:xlink="http://www.w3.org/1999/xlink" x="0px" y="0px"
	 viewBox="0 0 120 120" style="enable-background:new 0 0 120 120;" xml:space="preserve">
<style type="text/css">
	.st0{fill-rule:evenodd;clip-rule:evenodd;fill:#EE3465;}
</style>
<path class="st0" d="M60,117c31.5,0,57-25.5,57-57S91.5,3,60,3S3,28.5,3,60S28.5,117,60,117z M60,120c33.1,0,60-26.9,60-60
	S93.1,0,60,0S0,26.9,0,60S26.9,120,60,120z M55.1,60.7L36.7,42.3l5.7-5.7l18.4,18.4l17.7-17.7L84,43L66.4,60.7l17,17l-5.7,5.7
	l-17-17L43,84l-5.7-5.7L55.1,60.7z"/>
</svg>
